<svg viewBox="0 0 160 130" fill="none" xmlns="http://www.w3.org/2000/svg">
  <!-- Background circles -->
  <circle cx="80" cy="65" r="60" fill="#eef2ff" />
  <circle cx="80" cy="65" r="44" fill="#e0e7ff" />
  <!-- Envelope body -->
  <rect x="34" y="50" width="92" height="62" rx="7" fill="white" stroke="#c7d2fe" stroke-width="1.5" />
  <!-- Envelope flap (open) -->
  <path d="M34 50 L80 80 L126 50" stroke="#c7d2fe" stroke-width="1.5" fill="none" stroke-linecap="round" stroke-linejoin="round" />
  <path d="M34 50 Q34 38 46 38 L80 55 L114 38 Q126 38 126 50Z" fill="#eef2ff" stroke="#c7d2fe" stroke-width="1.5" />
  <!-- Letter paper 1 -->
  <rect x="54" y="14" width="52" height="44" rx="5" fill="white" stroke="#a5b4fc" stroke-width="1.5" transform="rotate(-8 54 14)" />
  <line x1="60" y1="30" x2="84" y2="28" stroke="#c7d2fe" stroke-width="1.5" stroke-linecap="round" transform="rotate(-8 60 30)" />
  <line x1="60" y1="37" x2="92" y2="35" stroke="#c7d2fe" stroke-width="1.5" stroke-linecap="round" transform="rotate(-8 60 37)" />
  <line x1="60" y1="44" x2="86" y2="42" stroke="#c7d2fe" stroke-width="1.5" stroke-linecap="round" transform="rotate(-8 60 44)" />
  <!-- Letter paper 2 -->
  <rect x="72" y="10" width="52" height="44" rx="5" fill="white" stroke="#818cf8" stroke-width="1.5" transform="rotate(6 72 10)" />
  <line x1="82" y1="26" x2="106" y2="29" stroke="#c7d2fe" stroke-width="1.5" stroke-linecap="round" transform="rotate(6 82 26)" />
  <line x1="82" y1="33" x2="114" y2="36" stroke="#c7d2fe" stroke-width="1.5" stroke-linecap="round" transform="rotate(6 82 33)" />
  <!-- Lock -->
  <circle cx="80" cy="81" r="10" fill="#6366f1" />
  <path d="M77 81 Q77 77 80 77 Q83 77 83 81 L83 85 L77 85 Z" fill="white" />
  <rect x="76" y="81" width="8" height="6" rx="2" fill="white" />
  <circle cx="80" cy="84" r="1.5" fill="#6366f1" />
</svg>